<?xml version="1.0" encoding="UTF-8" standalone="no"?>
<!DOCTYPE svg PUBLIC "-//W3C//DTD SVG 1.1//EN" "http://www.w3.org/Graphics/SVG/1.1/DTD/svg11.dtd">
<svg version="1.1" xmlns="http://www.w3.org/2000/svg" xmlns:xlink="http://www.w3.org/1999/xlink" preserveAspectRatio="xMidYMid meet" viewBox="0 0 640 640" width="640" height="640"><defs><path d="M-6.56 -5.61L646.56 -5.61L646.56 647.52L-6.56 647.52L-6.56 -5.61Z" id="fiofCghin"></path><path d="M243.8 291.56L303.99 270.12L389.75 228.89L489.52 217.35L566.21 235.49L619.8 238.78L614.85 249.5L553.01 266L583.52 275.07L579.4 284.96L529.45 270.12L467.24 281.66L415.29 361.64L276.76 411.94L165.45 416.07L100.31 372.36L30.22 367.42L153.08 294.03L243.8 291.56Z" id="b8mur90UmM"></path><path d="M142.95 320.95L166.52 325.95L162.95 338.81L147.24 343.81L129.38 330.95L142.95 320.95Z" id="iaAlNDySt"></path><path d="M103.8 323.5L96.08 318.45L84.09 320.31L81.23 336.81L103.8 323.5Z" id="e2FjoN75py"></path><path d="M335.93 381.92L350.66 414.25L388.16 406.74L453.23 424.03L445.45 434.51L388.16 416.07L350.66 429.3L320 386.59L335.93 381.92Z" id="b1iSIjy3s"></path><path d="M173.95 409.91L160.54 464.72L120.61 472.13L116.91 508.69L103.8 508.69L103.8 462.44L150.54 454.94L160.54 408.22L173.95 409.91Z" id="adyHCAABs"></path><path d="M202.83 411.39L195.43 489.17L152.46 498.06L152.46 529.91L138.88 526.95L138.88 489.17L182.09 480.28L190.24 411.39L202.83 411.39Z" id="a1AWpG99cF"></path><path d="M287.63 406.75L274.23 461.57L231.14 477.39L240.07 515L228.01 521.32L217.49 459.28L264.23 451.78L274.23 405.06L287.63 406.75Z" id="ffEsQKmkO"></path><path d="M81.23 350.23L64.78 300.77L67.64 252.02L62.56 254.97L55.71 297.27L79 358.91L81.23 350.23Z" id="d5SPWuV0nV"></path><path d="M60.83 348.8L27.5 312.24L21.41 272.45L15.67 277.11L21.41 320.13L55.71 351.31L60.83 348.8Z" id="dBhvWzF5R"></path></defs><g><g><g><use xlink:href="#fiofCghin" opacity="1" fill="#93d74f" fill-opacity="1"></use></g><g><use xlink:href="#b8mur90UmM" opacity="1" fill="#f76922" fill-opacity="1"></use></g><g><use xlink:href="#iaAlNDySt" opacity="1" fill="#2e2d2d" fill-opacity="1"></use></g><g><use xlink:href="#e2FjoN75py" opacity="1" fill="#2e2d2d" fill-opacity="1"></use></g><g><use xlink:href="#b1iSIjy3s" opacity="1" fill="#f76922" fill-opacity="1"></use></g><g><use xlink:href="#adyHCAABs" opacity="1" fill="#f76922" fill-opacity="1"></use></g><g><use xlink:href="#a1AWpG99cF" opacity="1" fill="#f76922" fill-opacity="1"></use></g><g><use xlink:href="#ffEsQKmkO" opacity="1" fill="#f76922" fill-opacity="1"></use></g><g><use xlink:href="#d5SPWuV0nV" opacity="1" fill="#ffffff" fill-opacity="1"></use></g><g><use xlink:href="#dBhvWzF5R" opacity="1" fill="#f8f8f8" fill-opacity="1"></use></g></g></g></svg>